# xmcd
#
# Track frame offsets:
#	150
#	16030
#	26187
#	33565
#	43825
#	53937
#	64575
#	73505
#	85105
#	94272
#	104662
#	113780
#	124987
#	135577
#	148962
#	157657
#	169805
#	178677
#	192507
#	202455
#
# Disc length: 2820 seconds
#
# Revision: 1
# Processed by: cddbd v1.5PL3 Copyright (c) Steve Scherf et al.
# Submitted via: CDex 1.50Beta5
#
DISCID=2b0b0214
DTITLE=bossanova super best - bossa nova
DYEAR=1900
DGENRE=
TTITLE0=she is a carioca
TTITLE1=so nice
TTITLE2=samba de una nota so
TTITLE3=mais que nade
TTITLE4=agua de beber
TTITLE5=the girl from ipanema
TTITLE6=corvado
TTITLE7=a ra
TTITLE8=chega de saudade
TTITLE9=so danco samba
TTITLE10=desafinado
TTITLE11=aquarius
TTITLE12=samba do aviao
TTITLE13=recado bossa nova
TTITLE14=tem do
TTITLE15=serenata
TTITLE16=ao amigo tom
TTITLE17=reza
TTITLE18=samba de orfeu
TTITLE19=tristeza em mim
EXTD=
EXTT0=
EXTT1=
EXTT2=
EXTT3=
EXTT4=
EXTT5=
EXTT6=
EXTT7=
EXTT8=
EXTT9=
EXTT10=
EXTT11=
EXTT12=
EXTT13=
EXTT14=
EXTT15=
EXTT16=
EXTT17=
EXTT18=
EXTT19=
PLAYORDER=
